Coordinates
version=1
nRows=29
nColumns=22
inDegrees=yes

Units are S.I. units (second, meters, Newtons, ...)
If the header above contains a line with 'inDegrees', this indicates whether rotational values are in degrees (yes) or radians (no).

endheader
time	pelvis_tilt	pelvis_list	pelvis_rotation	pelvis_tx	pelvis_ty	pelvis_tz	hip_flexion_r	hip_adduction_r	hip_rotation_r	knee_angle_r	ankle_angle_r	subtalar_angle_r	hip_flexion_l	hip_adduction_l	hip_rotation_l	knee_angle_l	ankle_angle_l	subtalar_angle_l	lumbar_extension	lumbar_bending	lumbar_rotation
      0.01000000	      0.95894047	     -2.79392814	     -0.39479306	      1.03629633	      0.93584425	     -0.02715438	      3.57927177	      3.22313275	     -5.33741459	    -16.24613008	      9.90200491	      0.97006093	      6.11707235	     -4.52370819	     -6.09086236	    -22.13949246	     13.49773299	     -2.65578159	     -9.10702989	     -0.30656150	     -6.39227410
      0.02000000	      1.03275001	     -2.83296234	     -0.39804384	      1.03581390	      0.93589547	     -0.02651532	      3.53528395	      3.30755421	     -5.36764980	    -16.24972250	      9.84780388	      0.91322130	      6.12520269	     -4.60968627	     -6.03610171	    -22.24536148	     13.53652796	     -2.73516844	     -9.20395488	     -0.24802220	     -6.36830369
      0.03000000	      1.08970288	     -2.84197421	     -0.39903190	      1.03519364	      0.93591987	     -0.02576210	      3.52164840	      3.36833774	     -5.38241111	    -16.25959756	      9.83448085	      0.85203092	      6.16765664	     -4.67086559	     -5.97781033	    -22.35875205	     13.52844102	     -2.75074802	     -9.28905589	     -0.22448535	     -6.34999214
      0.04000000	      1.14117452	     -2.85207667	     -0.39537048	      1.03446871	      0.93593295	     -0.02491877	      3.52644403	      3.43569269	     -5.41040120	    -16.27969125	      9.81474656	      0.77942085	      6.22932353	     -4.74167780	     -5.92390061	    -22.48105084	     13.51053709	     -2.73436732	     -9.37265683	     -0.20011929	     -6.33130818
      0.05000000	      1.18325169	     -2.86444435	     -0.37872081	      1.03365889	      0.93593083	     -0.02401775	      3.54368370	      3.51164445	     -5.44200295	    -16.29483510	      9.78952367	      0.68259174	      6.31756901	     -4.82164054	     -5.86863371	    -22.61618763	     13.48479515	     -2.69060436	     -9.45178152	     -0.17301455	     -6.32086479
      0.06000000	      1.22353240	     -2.87366696	     -0.36166440	      1.03279160	      0.93592606	     -0.02306967	      3.57027774	      3.58699483	     -5.47014888	    -16.31688442	      9.76562260	      0.58934954	      6.41610897	     -4.90144097	     -5.81066316	    -22.75826935	     13.44913186	     -2.63823036	     -9.52910723	     -0.15135376	     -6.31137176
      0.07000000	      1.26129593	     -2.88591097	     -0.33704021	      1.03188332	      0.93591785	     -0.02209944	      3.59892372	      3.66841898	     -5.49900007	    -16.33303770	      9.73829613	      0.49596250	      6.52859875	     -4.98729810	     -5.74979462	    -22.91207381	     13.41090894	     -2.58143552	     -9.60673182	     -0.12449998	     -6.30678522
      0.08000000	      1.28038919	     -2.90548109	     -0.29665704	      1.03095672	      0.93587641	     -0.02111479	      3.63445719	      3.76202552	     -5.53467930	    -16.32198436	      9.69411782	      0.35284786	      6.67958162	     -5.08290658	     -5.67099330	    -23.09137603	     13.39649617	     -2.48426101	     -9.65922882	     -0.09369872	     -6.30642500
      0.09000000	      1.31428389	     -2.93219551	     -0.25706915	      1.03000457	      0.93585786	     -0.02010658	      3.66099653	      3.86489809	     -5.56434346	    -16.32271745	      9.65958918	      0.23665798	      6.81826428	     -5.18884108	     -5.59813772	    -23.27251624	     13.36089065	     -2.40884796	     -9.73273318	     -0.05304434	     -6.30996848
      0.10000000	      1.36661740	     -2.96498270	     -0.21974163	      1.02906703	      0.93586765	     -0.01906076	      3.66591423	      3.97691306	     -5.58921905	    -16.32491233	      9.64180779	      0.16695520	      6.93503628	     -5.30396640	     -5.53113979	    -23.45209893	     13.30142395	     -2.37250639	     -9.82321062	     -0.01106942	     -6.30844854
      0.11000000	      1.39311678	     -3.01433428	     -0.16100803	      1.02813403	      0.93583068	     -0.01801664	      3.66614513	      4.11230827	     -5.62660665	    -16.26324632	      9.57538539	      0.01743103	      7.10494617	     -5.43736182	     -5.43088727	    -23.67030717	     13.30500407	     -2.27954907	     -9.87966468	      0.05253903	     -6.31781642
      0.12000000	      1.44809105	     -3.06121442	     -0.11746106	      1.02720697	      0.93583188	     -0.01691850	      3.64730785	      4.24728856	     -5.64151224	    -16.23071150	      9.57001188	     -0.06646128	      7.23750369	     -5.57210466	     -5.35097826	    -23.88094641	     13.24392099	     -2.23569286	     -9.96651706	      0.10765523	     -6.31331292
      0.13000000	      1.47358660	     -3.12377559	     -0.05878103	      1.02627192	      0.93577150	     -0.01581075	      3.63690277	      4.40362288	     -5.66845287	    -16.15147578	      9.50192965	     -0.26787876	      7.42495862	     -5.72331741	     -5.23255095	    -24.12650525	     13.26445197	     -2.10307398	    -10.01668029	      0.18053985	     -6.31141182
      0.14000000	      1.53122415	     -3.17832476	     -0.01261086	      1.02537282	      0.93575572	     -0.01466847	      3.58186565	      4.55172116	     -5.68404277	    -16.06299294	      9.52167987	     -0.32670215	      7.57110452	     -5.87058724	     -5.14956417	    -24.36702557	     13.20823715	     -2.06947768	    -10.09612043	      0.24067230	     -6.28702839
      0.15000000	      1.58261688	     -3.25347423	      0.04626113	      1.02446213	      0.93570616	     -0.01352522	      3.52228681	      4.72349051	     -5.70554819	    -15.95193238	      9.49825883	     -0.40919722	      7.74575646	     -6.03936079	     -5.03309314	    -24.64111902	     13.21136324	     -2.00796205	    -10.16549285	      0.32539673	     -6.26165382
      0.16000000	      1.63464735	     -3.33060687	      0.10211121	      1.02354897	      0.93563860	     -0.01238302	      3.46149689	      4.89458141	     -5.72876494	    -15.84002233	      9.49068875	     -0.47497069	      7.92717771	     -6.20921475	     -4.90837794	    -24.92796932	     13.21720657	     -1.94128818	    -10.23360547	      0.41625711	     -6.22525966
      0.17000000	      1.67394351	     -3.41999754	      0.17338009	      1.02264262	      0.93552566	     -0.01126858	      3.40467124	      5.07448185	     -5.77268526	    -15.70890666	      9.43650858	     -0.53534874	      8.14318728	     -6.39173147	     -4.76285679	    -25.24728447	     13.27714458	     -1.82872961	    -10.27850766	      0.52221754	     -6.19267349
      0.18000000	      1.73581441	     -3.51781049	      0.24659663	      1.02172347	      0.93542690	     -0.01017548	      3.33194221	      5.25748054	     -5.81310932	    -15.59576567	      9.44345459	     -0.51680706	      8.34430254	     -6.58242590	     -4.61156107	    -25.57867993	     13.29888835	     -1.75375725	    -10.35005646	      0.64132725	     -6.14744765
      0.19000000	      1.80606459	     -3.63349225	      0.32922734	      1.02080441	      0.93532064	     -0.00913097	      3.25179676	      5.45165355	     -5.87093444	    -15.48419910	      9.43534264	     -0.43153332	      8.55251501	     -6.78710168	     -4.43271245	    -25.93541092	     13.34144720	     -1.68319741	    -10.42672444	      0.79100542	     -6.10280059
      0.20000000	      1.88642266	     -3.76036699	      0.42338520	      1.01989410	      0.93521428	     -0.00812590	      3.15942793	      5.65025468	     -5.94370273	    -15.37140335	      9.44005006	     -0.27950117	      8.75863707	     -7.00215875	     -4.24520317	    -26.30207130	     13.39021129	     -1.62616010	    -10.51285205	      0.95742732	     -6.05855461
      0.21000000	      1.97225747	     -3.90363218	      0.52659257	      1.01900320	      0.93510644	     -0.00716487	      3.06846649	      5.85721595	     -6.03184053	    -15.27504369	      9.41678564	     -0.00082542	      8.96000273	     -7.22691031	     -4.02232979	    -26.66788102	     13.45328020	     -1.56305767	    -10.59793456	      1.14864405	     -6.01025313
      0.22000000	      2.07588960	     -4.04816427	      0.63583454	      1.01818038	      0.93501689	     -0.00623762	      2.94035974	      6.06069633	     -6.13024174	    -15.15485531	      9.44153595	      0.29868262	      9.13668191	     -7.45482899	     -3.82441392	    -27.02984302	     13.52198160	     -1.52950553	    -10.68995414	      1.34363978	     -5.96519654
      0.23000000	      2.18872612	     -4.19131522	      0.75160303	      1.01740663	      0.93493813	     -0.00533988	      2.78639418	      6.25959251	     -6.23720101	    -15.01079512	      9.50100781	      0.59881219	      9.29536324	     -7.68349117	     -3.65154475	    -27.38042720	     13.60732847	     -1.51393630	    -10.78390646	      1.53911159	     -5.93675903
      0.24000000	      2.30763986	     -4.33792563	      0.87063171	      1.01665849	      0.93487945	     -0.00447314	      2.62560076	      6.45912827	     -6.34864756	    -14.87004201	      9.56785448	      0.94041041	      9.42484351	     -7.91060465	     -3.47227931	    -27.69076057	     13.69171435	     -1.51156088	    -10.87847539	      1.73958129	     -5.90215313
      0.25000000	      2.42781368	     -4.47802825	      0.99113681	      1.01594189	      0.93484370	     -0.00364020	      2.45785748	      6.65006263	     -6.46198348	    -14.72219622	      9.63424370	      1.31041843	      9.52260729	     -8.12639432	     -3.29965968	    -27.94937997	     13.78487189	     -1.52369782	    -10.96698366	      1.93236888	     -5.87064443
      0.26000000	      2.54439764	     -4.60460202	      1.10149293	      1.01527410	      0.93484946	     -0.00284257	      2.29044468	      6.82453262	     -6.57918654	    -14.57220092	      9.66436565	      1.76801876	      9.56993788	     -8.31585399	     -3.12206922	    -28.11980887	     13.86638404	     -1.56250715	    -11.04090416	      2.10931775	     -5.80997833
      0.27000000	      2.65004566	     -4.71146071	      1.21269975	      1.01466670	      0.93485470	     -0.00207441	      2.12573732	      6.98278085	     -6.67745160	    -14.41415777	      9.74434460	      2.06751590	      9.60401384	     -8.49004083	     -3.00339809	    -28.25481036	     13.95429190	     -1.60923206	    -11.08773560	      2.26133045	     -5.77386056
      0.28000000	      2.74521006	     -4.79644951	      1.31180370	      1.01412360	      0.93488329	     -0.00132637	      1.97082467	      7.12078157	     -6.76057825	    -14.26097624	      9.80601645	      2.32742614	      9.60426459	     -8.63681752	     -2.90987941	    -28.32451828	     14.02869639	     -1.67466835	    -11.11076933	      2.38319840	     -5.73911942
      0.29000000	      2.80875619	     -4.85667251	      1.39862878	      1.01363298	      0.93488673	     -0.00059254	      1.85969952	      7.23711962	     -6.81474213	    -14.13252731	      9.91612704	      2.41833795	      9.60745312	     -8.75672363	     -2.85320968	    -28.35108490	     14.07997510	     -1.70994468	    -11.08587245	      2.47147182	     -5.70247572
